<?xml version="1.0" encoding="UTF-8"?>
<svg width="640px" height="180px" viewBox="0 0 640 180" version="1.1" xmlns="http://www.w3.org/2000/svg" xmlns:xlink="http://www.w3.org/1999/xlink">
  <defs>
    <style>
      text {
        stroke: none;
        dominant-baseline: middle;
        font-size: 15pt;
        font-family: sans-serif
      }
    </style>

    <marker id="arrowhead" markerWidth="10" markerHeight="7"
    refX="0" refY="3.5" orient="auto">
      <polygon points="0 0, 10 3.5, 0 7" />
    </marker>
  </defs>

  <svg x="20px" y="20px">
    <g stroke="none" stroke-width="1" fill="none" fill-rule="evenodd">
      <path d="M30.1807,12.5992 C30.1807,9.7832 32.4727,7.4912 35.2897,7.4912 C38.1067,7.4912 40.3987,9.7832 40.3987,12.5992 C40.3987,15.4162 38.1067,17.7082 35.2897,17.7082 C32.4727,17.7082 30.1807,15.4162 30.1807,12.5992 L30.1807,12.5992 Z M28.1807,12.5992 C28.1807,16.5192 31.3697,19.7082 35.2897,19.7082 C39.2097,19.7082 42.3987,16.5192 42.3987,12.5992 C42.3987,8.6792 39.2097,5.4912 35.2897,5.4912 C31.3697,5.4912 28.1807,8.6792 28.1807,12.5992 L28.1807,12.5992 Z M4.0007,43.8892 L21.1997,43.8892 L21.1997,26.6902 L4.0007,26.6902 L4.0007,43.8892 Z M2.0007,45.8892 L23.1997,45.8892 L23.1997,24.6902 L2.0007,24.6902 L2.0007,45.8892 Z M26.6907,43.8892 L43.8897,43.8892 L43.8897,26.6902 L26.6907,26.6902 L26.6907,43.8892 Z M24.6907,45.8892 L45.8897,45.8892 L45.8897,24.6902 L24.6907,24.6902 L24.6907,45.8892 Z M3.9997,21.1982 L21.1987,21.1982 L21.1987,3.9992 L3.9997,3.9992 L3.9997,21.1982 Z M1.9997,23.1992 L23.1987,23.1992 L23.1987,2.0002 L1.9997,2.0002 L1.9997,23.1992 Z M26.6907,21.1992 L43.8897,21.1992 L43.8897,4.0002 L26.6907,4.0002 L26.6907,21.1992 Z M24.6907,23.1982 L45.8897,23.1982 L45.8897,1.9992 L24.6907,1.9992 L24.6907,23.1982 Z" id="Amazon-DATABASE_Amazon-DynamoDB_Item_Resource-Icon_light-bg" fill="#527FFF"></path>
    </g>
  </svg>

  <text x="80px" y="46px" fill="#527FFF">DynamoDB item</text>

  <text x="80px" y="94px">:id:</text>
  <text x="80px" y="122px">:location:</text>
  <text x="80px" y="150px">:version:</text>

  <rect x="10px" y="10px" width="280px" height="160px" fill="rgba(82, 127, 255, 0.1)" rx="5" stroke-width="2" stroke="#527FFF" />

  <line y1="120px" y2="120px" x1="168px" x2="322px" stroke-width="2" stroke="black" marker-end="url(#arrowhead)"/>

  <svg x="360px" y="20px">
    <g id="Icon-Resource/Storage/Res_Amazon-Simple-Storage_Object_48" stroke="none" stroke-width="1" fill="none" fill-rule="evenodd">
        <path d="M23.971,43.9414 C12.959,43.9414 4,34.9824 4,23.9704 C4,12.9594 12.959,4.0004 23.971,4.0004 C34.983,4.0004 43.942,12.9594 43.942,23.9704 C43.942,34.9824 34.983,43.9414 23.971,43.9414 M23.971,2.0004 C11.857,2.0004 2,11.8564 2,23.9704 C2,36.0854 11.857,45.9414 23.971,45.9414 C36.085,45.9414 45.942,36.0854 45.942,23.9704 C45.942,11.8564 36.085,2.0004 23.971,2.0004" id="AWS-Amazon-Simple-Storage_Object_Resource-Icon_dark-bg" fill="#6CAE3E"></path>
    </g>
  </svg>

  <text x="420px" y="46px" fill="#6CAE3E">S3 object</text>

  <rect x="350px" y="10px" width="280px" height="160px" fill="rgba(108, 174, 62, 0.1)" rx="5" stroke-width="2" stroke="#6CAE3E"/>
</svg>